<svg xmlns="http://www.w3.org/2000/svg" width="16.614" height="10.588" viewBox="0 0 16.614 10.588">
  <g id="_1157725" data-name="1157725" transform="translate(-0.5 814.774)">
    <path id="Path_2" data-name="Path 2" d="M8.581-814.753a.76.76,0,0,0-.43.3.874.874,0,0,0-.233.685.917.917,0,0,0,.24.6,1.274,1.274,0,0,0,.153.152.883.883,0,0,0,.253.126.037.037,0,0,1,.029.012c.013.021-.965,3.392-1.012,3.49a.438.438,0,0,1-.183.229.121.121,0,0,1-.112.013.547.547,0,0,1-.24-.248c-.035-.061-.446-.6-.912-1.207l-.847-1.1.06-.051a1.042,1.042,0,0,0,.409-.8.848.848,0,0,0-.207-.574.9.9,0,0,0-.505-.363.737.737,0,0,0-.522.064.666.666,0,0,0-.207.159,1.086,1.086,0,0,0-.314.507,1.313,1.313,0,0,0,0,.416,1.261,1.261,0,0,0,.172.359.918.918,0,0,0,.525.378c.051.012.092.022.094.023s-.252,2.552-.264,2.625a.946.946,0,0,1-.109.3c-.1.135-.231.126-.435-.03-.049-.038-.5-.337-1-.663s-.917-.6-.927-.611-.01-.027.029-.082a1.021,1.021,0,0,0,.1-.943,1.025,1.025,0,0,0-.608-.561.95.95,0,0,0-.383-.006,1.2,1.2,0,0,0-.182.069.709.709,0,0,0-.234.178.849.849,0,0,0-.178.229.766.766,0,0,0-.1.461.791.791,0,0,0,.031.3.9.9,0,0,0,.859.667.612.612,0,0,0,.348-.088.4.4,0,0,1,.087-.043c.006.009.357.671.5.94a6.233,6.233,0,0,1,.73,2.092c.008.049.017.107.021.127l.008.035H14.511l.009-.068c.016-.123.1-.52.146-.7a6.694,6.694,0,0,1,.486-1.25c.134-.272.6-1.156.612-1.176s.027,0,.048.017a.8.8,0,0,0,.45.113.862.862,0,0,0,.554-.268,1.31,1.31,0,0,0,.155-.184.969.969,0,0,0-.224-1.271.926.926,0,0,0-.347-.183.937.937,0,0,0-.351,0,1.006,1.006,0,0,0-.487.324.874.874,0,0,0-.211.655.981.981,0,0,0,.174.541c.032.047.039.064.026.075s-.429.283-.933.612-.958.63-1.007.668a.411.411,0,0,1-.26.116c-.122,0-.2-.09-.252-.278-.018-.074-.062-.482-.149-1.415-.068-.721-.123-1.316-.123-1.323s.009-.012.018-.012a1,1,0,0,0,.3-.116,1.138,1.138,0,0,0,.389-.472,1.04,1.04,0,0,0,.009-.725.962.962,0,0,0-.251-.352.773.773,0,0,0-.409-.24.788.788,0,0,0-.561.1,1.463,1.463,0,0,0-.335.335.987.987,0,0,0,.005,1.029,1.371,1.371,0,0,0,.268.292l.052.039-.04.051c-.374.474-1.679,2.184-1.727,2.265a.549.549,0,0,1-.24.239c-.1.021-.205-.078-.281-.264-.016-.039-.1-.312-.185-.6s-.309-1.052-.5-1.689-.335-1.163-.333-1.172a.031.031,0,0,1,.026-.017.683.683,0,0,0,.125-.053,1.108,1.108,0,0,0,.382-.363,1.049,1.049,0,0,0,.077-.871,1.034,1.034,0,0,0-.561-.56A1.039,1.039,0,0,0,8.581-814.753Z" fill="gold"/>
    <path id="Path_3" data-name="Path 3" d="M199-131.142v.858h11.422l0-.858,0-.858H199Z" transform="translate(-195.921 -673.902)" fill="gold"/>
  </g>
</svg>
